<svg id="Слой_1" xmlns="http://www.w3.org/2000/svg" viewBox="0 0 164 70"><style>.st0{fill:#395369;} .st1{fill:#F49A47;}</style><path class="st0" d="M5.7 29.4c-3.3 0-5.3-2.3-5.3-5.5v-3.2h2.9v3c0 1.8.9 3 2.3 3 1.7 0 2.4-1.1 2.4-2.8 0-2.7-1-4.9-3.2-7.7C2.8 13.7.5 10 .5 6.7c0-3.5 1.7-6 5.3-6 3 0 5 2.3 5 5.5v3.3H8v-3c0-1.9-.7-3-2.2-3-1.5 0-2.3.9-2.3 2.5 0 3 1 4.8 3.5 8.1 2.4 3.1 3.9 6 3.9 9.2.1 4.5-2.7 6.1-5.2 6.1zM21.7 29l-.7-6h-3.8l-.9 6h-2.8l4.2-27.8h3.1l4 27.8h-3.1zM19.1 7.8l-1.6 12.4h3.1L19.1 7.8zM36.8 29l-4.7-14-1.3-4.5V29H28V1.3h2.7L35 15.6l1.3 4.5V1.3H39V29h-2.2zM52.3 4v9.5h4.4v2.7h-4.4V29h-3V1.3h8.6V4h-5.6zM71.3 29.3c-2 0-2.8-.7-2.8-3v-7.2c0-1.4-.7-2.3-1.9-2.3h-2.3V29h-3V1.3h5.5c2.6 0 4.6 1.3 4.6 5v5.3c0 2-.6 3.4-2.3 4 1.7.5 2.4 2.1 2.4 3.9v6.7c0 .8.2 1.1.8 1.1v2h-1zM68.4 6c0-1.3-.5-2-1.7-2h-2.4v10.1h2.2c1.2 0 1.9-.8 1.9-2.3V6zM82.7 29l-.7-6h-3.8l-.9 6h-2.8l4.2-27.8h3.1l4 27.8h-3.1zM80.1 7.8l-1.6 12.4h3.1L80.1 7.8zM97.8 29l-4.7-14-1.3-4.5V29H89V1.3h2.7L96 15.6l1.3 4.5V1.3h2.8V29h-2.3zM109.3 29.4c-3.3 0-5.3-2.5-5.3-5.7V6.5c0-3.2 2-5.7 5.3-5.7s5.1 2.4 5.1 5.6V11h-2.6V6.1c0-1.4-.8-2.4-2.3-2.4-1.6 0-2.4 1-2.4 2.4v18.1c0 1.4.8 2.4 2.4 2.4 1.5 0 2.3-1 2.3-2.4v-4.9h2.6v4.6c0 3.2-1.8 5.5-5.1 5.5zM118.2 29V1.3h3V29h-3zM130.2 29.4c-3.3 0-5.3-2.3-5.3-5.5v-3.2h2.9v3c0 1.8.9 3 2.3 3 1.7 0 2.4-1.1 2.4-2.8 0-2.7-1-4.9-3.2-7.7-2-2.5-4.3-6.2-4.3-9.5 0-3.5 1.7-6 5.3-6 3 0 5 2.3 5 5.5v3.3h-2.8v-3c0-1.9-.7-3-2.2-3-1.5 0-2.3.9-2.3 2.5 0 3 1 4.8 3.5 8.1 2.4 3.1 3.9 6 3.9 9.2.1 4.5-2.6 6.1-5.2 6.1zM144.3 29.4c-3.3 0-5.3-2.5-5.3-5.7V6.5c0-3.2 2-5.7 5.3-5.7s5.1 2.4 5.1 5.6V11h-2.6V6.1c0-1.4-.8-2.4-2.3-2.4-1.6 0-2.4 1-2.4 2.4v18.1c0 1.4.8 2.4 2.4 2.4 1.5 0 2.3-1 2.3-2.4v-4.9h2.6v4.6c-.1 3.2-1.9 5.5-5.1 5.5zM158.3 29.4c-3.3 0-5.3-2.4-5.3-5.8v-17c0-3.3 2.1-5.8 5.3-5.8 3.3 0 5.3 2.5 5.3 5.8v17c0 3.4-2.1 5.8-5.3 5.8zm2.3-23.2c0-1.4-.8-2.5-2.4-2.5-1.5 0-2.3 1.1-2.3 2.5V24c0 1.5.8 2.5 2.3 2.5 1.5 0 2.4-1 2.4-2.5V6.2z"/><g><path class="st1" d="M.4 69.7V34h11.4v3.6H4.3v11.9h5.4V53H4.3v13.1h7.5v3.6H.4zM23.4 69.7h-7V34h7c4.6 0 6.5 2.9 6.5 7.9v19.9c.1 5-1.8 7.9-6.5 7.9zm2.7-28.1c0-2.7-.8-3.9-2.8-3.9h-2.9V66h2.9c2 0 2.8-1.2 2.8-3.8V41.6zM41.8 70.3c-3.9 0-6.8-2.8-6.8-7.2V34h3.9v29.3c0 2.2 1 3.3 2.9 3.3 2 0 2.9-1.1 2.9-3.3V34h3.8v29.1c.1 4.4-2.8 7.2-6.7 7.2zM60.5 70.3c-4.2 0-6.8-3.2-6.8-7.3V40.8c0-4.1 2.6-7.3 6.8-7.3 4.2 0 6.5 3.1 6.5 7.2v5.8h-3.4v-6.2c0-1.8-1.1-3.1-3-3.1-2 0-3.1 1.3-3.1 3.1v23.3c0 1.8 1.1 3.1 3.1 3.1 1.9 0 3-1.3 3-3.1v-6.3H67v5.9c0 4-2.3 7.1-6.5 7.1zM81.1 69.7l-1-7.7h-4.9L74 69.7h-3.6L75.8 34h4L85 69.7h-3.9zm-3.4-27.2l-2.1 15.9h4l-1.9-15.9zM95.2 37.7v32.1h-3.8V37.7h-4.8V34h13.2v3.6h-4.6zM103.9 69.7V34h3.9v35.7h-3.9zM120 70.3c-4.2 0-6.9-3.1-6.9-7.5V40.9c0-4.3 2.7-7.4 6.9-7.4s6.9 3.2 6.9 7.4v21.9c-.1 4.4-2.8 7.5-6.9 7.5zm3-29.9c0-1.8-1.1-3.2-3.1-3.2s-3 1.4-3 3.2v22.9c0 1.9 1 3.2 3 3.2s3.1-1.3 3.1-3.2V40.4zM143.5 69.7l-6.1-18.1-1.7-5.7v23.8h-3.6V34h3.5l5.5 18.3 1.6 5.8V34h3.6v35.7h-2.8z"/></g><g><path class="st0" d="M161.5 36.5h-2.9v2.9h-2.1v-2.9h-5V34h12v6.5h-2.1v-4zM151.3 46c0-2.3 1.4-3.9 3.4-3.9h8.9v2.6h-8.9c-.8 0-1.3.5-1.3 1.3 0 .9.4 1.3 1.3 1.3h8.9v2.5h-8.9c-2 .1-3.4-1.5-3.4-3.8zM151.6 58.2l4.8-2.6 2-1h-6.8v-2.4h12v2.1l-4.9 2.6-2 1h6.9v2.3h-12v-2zM151.6 66.4v-4h12v4c0 2.5-1.6 3.8-3.6 3.8h-4.9c-2 0-3.5-1.3-3.5-3.8zm8.3 1.3c1 0 1.5-.4 1.5-1.4V65h-7.7v1.2c0 1 .6 1.4 1.5 1.4h4.7z"/></g></svg>